<svg xmlns="http://www.w3.org/2000/svg" viewBox="0 0 436.76 85.1"><g id="圖層_2" data-name="圖層 2"><g id="菜單-sign"><path d="M30,62.74c-2.44,0-4.9-1.18-7.31-3.51-2.09-2-5.46-6.16-10.26-12.59l-3,15.2L0,62.37,2.84,50.53,7.52,27c1.67-8.4,4.88-15,9.55-19.77A23.55,23.55,0,0,1,34.37,0a25.57,25.57,0,0,1,6.41.75l1.65.43L36.07,7.81l-.64-.29A16.23,16.23,0,0,0,29,5.79a8.83,8.83,0,0,0-6.76,2.8,11.77,11.77,0,0,0-2.47,4.2c-.63,1.77-1.61,5.54-2.89,11.2l-2.1,9.29a30.38,30.38,0,0,1,6-6.75c3.67-3,7.41-4.59,11.12-4.59,4.37,0,6.77,2.34,6.77,6.57A13.18,13.18,0,0,1,33.58,39c-3,2.48-7.12,4.26-12.33,5.3C28.41,54,32.07,56.09,33.89,56.09s4-1.3,6.74-3.87l2.26-2.1-1.14,5.77-.23.22C36.74,60.57,33,62.74,30,62.74ZM28.29,27.33c-2.32,0-6.7,2.54-14.51,14.43a19.16,19.16,0,0,0,11.35-3.69C28.38,35.65,30,32.9,30,29.68,30,27.33,28.87,27.33,28.29,27.33Z"/><path d="M1.29,61.29,3.82,50.77,8.5,27.15Q11,14.77,17.78,7.89A22.47,22.47,0,0,1,34.37,1a24.37,24.37,0,0,1,6.15.72L35.84,6.61A17.12,17.12,0,0,0,29,4.79,9.87,9.87,0,0,0,21.52,7.9a12.82,12.82,0,0,0-2.68,4.55q-1,2.73-2.92,11.31L12.53,38.7h.41A31.57,31.57,0,0,1,21.4,27.3q5.25-4.35,10.48-4.36,5.77,0,5.77,5.57a12.21,12.21,0,0,1-4.71,9.75q-4.72,3.93-13.44,5.36,9.72,13.47,14.39,13.47,3,0,7.42-4.14l-.48,2.43Q34,61.74,30,61.74c-2.18,0-4.39-1.08-6.61-3.23s-6.06-6.91-11.5-14.27L8.53,60.88Zm10.93-19-.06.45h1.16a20.2,20.2,0,0,0,12.41-3.9Q31,35,31,29.68c0-2.24-.88-3.35-2.66-3.35Q22.52,26.33,12.22,42.32Z"/><path d="M75.4,62.74c-3.85,0-6-2.19-6-6.16a34.63,34.63,0,0,1,.85-6l.64-3.22A44.13,44.13,0,0,1,63.74,57c-3.8,3.79-7.46,5.71-10.88,5.71-3.75,0-8.21-1.74-8.21-10,0-6.84,2.75-13.61,8.16-20.12,5.64-6.79,12.64-10.24,20.8-10.24,3.27,0,6.73.14,10.3.42l1.17.09L82.34,34.12,79,51a32.25,32.25,0,0,0-.77,4.93c0,1,.33,1.16,1,1.16,1.36,0,4.1-1.25,9.45-7.19l2.41-2.68-1.36,7-.19.21C84.34,60,79.7,62.74,75.4,62.74Zm-8.22-35c-3.76,0-6.71,2.38-9,7.29-2.84,6-4.28,11.51-4.28,16.28,0,4.37,1.62,4.37,2.15,4.37,1.13,0,3.39-1,7.7-5.84a68.58,68.58,0,0,0,9.48-13.77l1.36-6.82A19.74,19.74,0,0,0,67.18,27.74Z"/><path d="M72.94,42.32h-.62a46.35,46.35,0,0,1-9.29,14q-5.43,5.41-10.17,5.42-7.22,0-7.21-9,0-9.94,7.93-19.48,8.2-9.87,20-9.88,4.89,0,10.22.41L81.37,33.88,78.05,50.77a35.52,35.52,0,0,0-.78,5.12q0,2.16,2,2.16,3.42,0,10.19-7.52l-.62,3.18q-7.5,8-13.45,8-5,0-5-5.16a34.39,34.39,0,0,1,.83-5.81Zm2.75-13.67a20.93,20.93,0,0,0-8.51-1.91q-6.23,0-9.94,7.86-4.38,9.3-4.38,16.71,0,5.37,3.15,5.37,2.93,0,8.45-6.17a69.4,69.4,0,0,0,9.68-14.1Z"/><path d="M102.36,62.74c-3.82,0-5.93-2.19-5.93-6.16a34.86,34.86,0,0,1,.81-5.94L99.6,38.75a46.2,46.2,0,0,0,.94-6.54c0-1.88-.77-1.88-1.23-1.88a22.06,22.06,0,0,0-5.22,1.13l-1.58.46.84-4.28,19-6.2-3,12.67L106,51a32.68,32.68,0,0,0-.77,4.86c0,1.14.42,1.23,1,1.23,1.34,0,4.07-1.25,9.44-7.19l2.41-2.66-1.35,7-.2.21C111.28,60,106.65,62.74,102.36,62.74Zm3-51.08L118.18,3.3l-4.57,9.78-12,6.2Z"/><path d="M116.4,50.53l-.61,3.18q-7.49,8-13.43,8-4.94,0-4.93-5.16a34.71,34.71,0,0,1,.79-5.75l2.36-11.89a45.83,45.83,0,0,0,1-6.73c0-1.92-.75-2.88-2.23-2.88a23.49,23.49,0,0,0-5.5,1.17l.41-2.09,16.72-5.47-2.6,10.94L105,50.77a35.2,35.2,0,0,0-.79,5c0,1.49.67,2.23,2,2.23Q109.6,58.05,116.4,50.53ZM103.86,17l2.29-4.65,9.64-6.29-2.94,6.29Z"/><path d="M161.92,72.44l4.92-24.68a43.72,43.72,0,0,1-6.9,9.25c-3.78,3.8-7.41,5.73-10.79,5.73-3.7,0-8.11-1.74-8.11-10,0-6.81,2.73-13.58,8.12-20.12,5.6-6.79,12.56-10.24,20.7-10.24,2.72,0,6.09.14,10,.42l1.17.08-2.7,11.27-6.11,30.67a60.19,60.19,0,0,0-1.38,9.55c0,2,.85,2,1.36,2a18.79,18.79,0,0,0,5.3-1.11l1.62-.52-.93,4.66L158.92,85.1Zm1.41-44.7c-3.62,0-6.5,2.38-8.8,7.28-2.86,6.06-4.31,11.55-4.31,16.33,0,4.33,1.58,4.33,2.11,4.33,1.48,0,4.21-1.28,8.77-7.39,4.36-5.81,7.06-9.9,8-12.18l1.4-6.87A17.14,17.14,0,0,0,163.33,27.74Z"/><path d="M168.94,42.32h-.48a46.51,46.51,0,0,1-9.23,14q-5.4,5.45-10.08,5.44-7.11,0-7.11-9,0-9.9,7.89-19.48,8.15-9.87,19.93-9.88,4.06,0,9.95.41l-2.43,10.13L171.26,64.6a60.17,60.17,0,0,0-1.4,9.74c0,2,.79,3,2.36,3a19.68,19.68,0,0,0,5.6-1.15l-.47,2.39-17.06,5.06,2.6-11Zm2.73-13.63a17.8,17.8,0,0,0-8.34-2q-6,0-9.7,7.86-4.41,9.33-4.41,16.75c0,3.55,1,5.33,3.11,5.33q3.75,0,9.57-7.79,6.73-9,8.2-12.48Z"/><path d="M195.39,62.74c-3.82,0-5.92-2.19-5.92-6.16a33.85,33.85,0,0,1,.81-5.94l2.35-11.89a44.7,44.7,0,0,0,.94-6.54c0-1.88-.76-1.88-1.22-1.88a22,22,0,0,0-5.22,1.13l-1.58.46.84-4.28,19-6.2-3,12.67L199,51a32.68,32.68,0,0,0-.77,4.86c0,1.14.42,1.23,1,1.23,1.34,0,4.06-1.25,9.44-7.19l2.4-2.66-1.35,7-.19.21C204.32,60,199.69,62.74,195.39,62.74Zm3-51.08L211.22,3.3l-4.57,9.78-12,6.2Z"/><path d="M209.44,50.53l-.61,3.18q-7.49,8-13.44,8-4.92,0-4.92-5.16a33.64,33.64,0,0,1,.79-5.75l2.36-11.89a46.78,46.78,0,0,0,.95-6.73q0-2.88-2.22-2.88a23.49,23.49,0,0,0-5.5,1.17l.41-2.09L204,22.94l-2.6,10.94L198,50.77a36.14,36.14,0,0,0-.78,5c0,1.49.67,2.23,2,2.23Q202.64,58.05,209.44,50.53ZM196.9,17l2.29-4.65,9.64-6.29-2.94,6.29Z"/><path d="M269.08,57.58A135.49,135.49,0,0,0,267.87,38c-5,10.08-9.86,18-14.42,23.5l-.22.26L247.92,63l.07-1.32c.11-2.23.17-4.48.17-6.69,0-10.07-.55-17.13-1.62-21-1-3.51-2.6-5.21-4.94-5.21-1.57,0-4.32,1.36-8.48,7.88L231.29,36l.93-4.86.13-.18c4.21-5.95,8.44-9,12.55-9,7.75,0,11.51,9.35,11.51,28.59v.14c6.44-9.76,10.19-18.73,11.17-26.69l.08-.69,4.77-1.12.28.89a102.88,102.88,0,0,1,4.64,27.17A77.46,77.46,0,0,0,284,39.15c2.24-4.6,3.38-8.1,3.38-10.4A10,10,0,0,0,286,24.23l-.73-1.38,10-.53.25.69a9.38,9.38,0,0,1,.65,3.25c0,2-1.08,4.87-3.28,8.72a169.25,169.25,0,0,1-10.39,15.25l-1.84,2.5-6.57,9L268.94,63Z"/><path d="M249,61.74c.11-2.26.17-4.5.17-6.74q0-15.3-1.66-21.26c-1.11-4-3.07-5.94-5.9-5.94q-4,0-9.33,8.34l.89-4.65q6.06-8.55,11.74-8.55,10.51,0,10.51,27.59L255.34,54q11.6-16.55,13.23-29.9l3.18-.76a100.4,100.4,0,0,1,4.65,29.84,78.62,78.62,0,0,0,8.48-13.6q3.48-7.14,3.48-10.84a11,11,0,0,0-1.5-5l7.65-.41a8.42,8.42,0,0,1,.59,2.91q0,2.73-3.15,8.22a169.61,169.61,0,0,1-10.32,15.16l-1.85,2.49-6.35,8.75-3.46.86.11-4.14a122.41,122.41,0,0,0-1.74-22.8q-8.25,17.1-15.66,26.08Z"/><path d="M331,62.74c-3.85,0-6-2.19-6-6.16a34.63,34.63,0,0,1,.85-6l.64-3.22A43.81,43.81,0,0,1,319.3,57c-3.8,3.79-7.46,5.71-10.88,5.71-3.74,0-8.21-1.74-8.21-10,0-6.84,2.75-13.61,8.16-20.12C314,25.8,321,22.35,329.17,22.35c3.27,0,6.74.14,10.3.42l1.17.09L337.9,34.12,334.6,51a32.25,32.25,0,0,0-.77,4.93c0,1,.33,1.16,1,1.16,1.35,0,4.09-1.25,9.44-7.19l2.41-2.68-1.36,7-.19.21C339.9,60,335.26,62.74,331,62.74Zm-8.22-35c-3.76,0-6.71,2.38-9,7.29-2.84,6-4.27,11.51-4.27,16.28,0,4.37,1.61,4.37,2.14,4.37,1.13,0,3.39-1,7.71-5.84a69,69,0,0,0,9.47-13.77l1.36-6.82A19.71,19.71,0,0,0,322.74,27.74Z"/><path d="M328.5,42.32h-.62a46.35,46.35,0,0,1-9.29,14c-3.61,3.61-7,5.42-10.17,5.42q-7.2,0-7.21-9,0-9.94,7.93-19.48,8.21-9.87,20-9.88,4.89,0,10.22.41l-2.46,10.12-3.31,16.89a34.62,34.62,0,0,0-.79,5.12c0,1.44.67,2.16,2,2.16q3.4,0,10.18-7.52l-.61,3.18q-7.5,8-13.46,8-5,0-5-5.16a34.39,34.39,0,0,1,.83-5.81Zm2.75-13.67a20.93,20.93,0,0,0-8.51-1.91q-6.21,0-9.94,7.86-4.38,9.3-4.37,16.71c0,3.58,1,5.37,3.14,5.37s4.77-2.06,8.45-6.17a69,69,0,0,0,9.68-14.1Z"/><path d="M381.13,62.74c-3.82,0-5.93-2.19-5.93-6.16a35.41,35.41,0,0,1,.84-6l3.32-16.73a15.51,15.51,0,0,0,.39-3.08c0-1.77-.66-1.77-1.05-1.77-2.7,0-7.88,3.48-17.17,20l-2.62,12.81-9.32.53,2.84-11.84,3.34-16.84a31.38,31.38,0,0,0,.77-4.94c0-.95-.31-1.12-1-1.12-1.32,0-4,1.25-9.44,7.19l-2.41,2.65L345,30.54l.19-.21c5.21-5.64,9.85-8.39,14.17-8.39,3.82,0,5.92,2.18,5.92,6.13a34.93,34.93,0,0,1-.81,6l-.66,3.36a47.23,47.23,0,0,1,7.47-9.88c3.77-3.72,7.38-5.61,10.74-5.61,3,0,6.6,1.26,6.6,7.22a26.7,26.7,0,0,1-.6,5.12L384.74,51a32.25,32.25,0,0,0-.77,4.93c0,1,.33,1.16,1,1.16,1.35,0,4.1-1.25,9.48-7.19l2.45-2.7-1.44,7-.19.21C390.08,60,385.44,62.74,381.13,62.74Z"/><path d="M350.88,61.29l2.53-10.52,3.35-16.89a34.62,34.62,0,0,0,.78-5.13c0-1.41-.67-2.12-2-2.12q-3.34,0-10.18,7.52L346,31q7.46-8.07,13.44-8.07,4.92,0,4.92,5.13a34.76,34.76,0,0,1-.79,5.81l-1.67,8.44h.51A51,51,0,0,1,372,28.26q5.39-5.31,10-5.32c3.74,0,5.6,2.08,5.6,6.22a25.62,25.62,0,0,1-.58,4.93l-3.31,16.68a34.62,34.62,0,0,0-.79,5.12c0,1.44.67,2.16,2,2.16q3.42,0,10.22-7.51l-.65,3.17q-7.46,8-13.43,8-4.94,0-4.93-5.16a35.07,35.07,0,0,1,.82-5.8l3.32-16.73a16.65,16.65,0,0,0,.41-3.28c0-1.85-.68-2.77-2.05-2.77q-6.52,0-18.12,20.68l-2.49,12.2Z"/><path d="M403,84.65a19.23,19.23,0,0,1-10.3-2.5c-2.81-1.74-4.23-4.08-4.23-7,0-5.07,3.94-10.08,11.71-14.89-2.13-1.71-3.2-4.47-3.2-8.21,0-7,2.84-13.76,8.44-20.21A26.22,26.22,0,0,1,426,22.35c1.51,0,4.74.14,9.59.42l1.2.06-2.71,11.28-1.6,7.9c-.81,4.14-1.37,7.23-1.66,9.18C429.51,59.43,428.25,65,427,68.25a27.7,27.7,0,0,1-7,9.56A24.34,24.34,0,0,1,403,84.65Zm2.16-22.71c-5.53,3.85-8.34,7.4-8.34,10.53a6.07,6.07,0,0,0,2.92,5,12.54,12.54,0,0,0,7.5,2.22,10.34,10.34,0,0,0,8.85-4.37c2.25-3,3.88-7.94,4.86-14.6l2-14A38.91,38.91,0,0,1,416.1,56,20.86,20.86,0,0,1,405.16,61.94Zm14-34.2a8.39,8.39,0,0,0-6.9,3.68,30.59,30.59,0,0,0-4.37,9.18,34.86,34.86,0,0,0-2,10.4c0,3.82,1.49,3.82,2,3.82,2.8,0,8-3.26,16.92-18.8l1.32-6.69A17.07,17.07,0,0,0,419.17,27.74Z"/><path d="M402.08,60.34Q398,58.29,398,52.1q0-10.12,8.2-19.55A25.13,25.13,0,0,1,426,23.35q2.25,0,9.54.41l-2.43,10.12-1.61,7.93q-1.23,6.25-1.67,9.23Q427.91,63.18,426,67.87a26.29,26.29,0,0,1-6.72,9.21A23.24,23.24,0,0,1,403,83.65a18.14,18.14,0,0,1-9.77-2.35q-3.76-2.34-3.76-6.1Q389.47,67.69,402.08,60.34Zm22.56-18h-.55a41.32,41.32,0,0,1-8.68,12.92A19.67,19.67,0,0,1,404.78,61q-9,6.18-9,11.48a7,7,0,0,0,3.34,5.83,13.45,13.45,0,0,0,8.08,2.41,11.36,11.36,0,0,0,9.65-4.77q3.54-4.77,5.05-15.06Zm2.7-13.57a18.46,18.46,0,0,0-8.17-2,9.41,9.41,0,0,0-7.69,4.06A31.45,31.45,0,0,0,407,40.29a35.62,35.62,0,0,0-2,10.71c0,3.22,1,4.82,3,4.82q6.74,0,17.87-19.44Z"/></g></g></svg>